HIERARCHY
ROOT root
{
	OFFSET	0	13.1	24.9
	CHANNELS 6  Xposition Yposition Zposition Xrotation Yrotation Zrotation
	JOINT spine_1
	{
		OFFSET	0	9.99999	0
		CHANNELS 3  Xrotation Yrotation Zrotation
		JOINT spine_2
		{
			OFFSET	0	112	-10
			CHANNELS 3  Xrotation Yrotation Zrotation
			JOINT spine_3
			{
				OFFSET	0	206.5	19.3
				CHANNELS 3  Xrotation Yrotation Zrotation
				JOINT spine_4
				{
					OFFSET	0	110.4	14.6
					CHANNELS 3  Xrotation Yrotation Zrotation
					JOINT neck_1
					{
						OFFSET	0	71.8	-50.3
						CHANNELS 3  Xrotation Yrotation Zrotation
						JOINT neck_2
						{
							OFFSET	0	86.2	-25.8
							CHANNELS 3  Xrotation Yrotation Zrotation
							JOINT head_ee
							{
								OFFSET	0	179.8	-8.7
								CHANNELS 3  Xrotation Yrotation Zrotation
								End Site
								{
									OFFSET	1	0	0
								}
							}
						}
					}
					JOINT left_clavicle
					{
						OFFSET	-43.2	22.4	-70.8
						CHANNELS 3  Xrotation Yrotation Zrotation
						JOINT left_shoulder
						{
							OFFSET	-93.9	-5.79999	48.7
							CHANNELS 3  Xrotation Yrotation Zrotation
							JOINT left_elbow
							{
								OFFSET	-291.4	-30.8	15.2
								CHANNELS 3  Xrotation Yrotation Zrotation
								JOINT left_lowarm_twist
								{
									OFFSET	-110.7	-3.89999	13.6
									CHANNELS 3  Xrotation Yrotation Zrotation
									JOINT left_hand
									{
										OFFSET	-110.7	-3.89999	13.6
										CHANNELS 3  Xrotation Yrotation Zrotation
										JOINT left_ee
										{
											OFFSET	-80.8	-5.10001	12.1
											CHANNELS 3  Xrotation Yrotation Zrotation
											End Site
											{
												OFFSET	1	0	0
											}
										}
									}
								}
							}
						}
					}
					JOINT right_clavicle
					{
						OFFSET	43.2	22.4	-70.8
						CHANNELS 3  Xrotation Yrotation Zrotation
						JOINT right_shoulder
						{
							OFFSET	93.9	-5.79999	48.7
							CHANNELS 3  Xrotation Yrotation Zrotation
							JOINT right_elbow
							{
								OFFSET	291.4	-30.8	15.2
								CHANNELS 3  Xrotation Yrotation Zrotation
								JOINT right_lowarm_twist
								{
									OFFSET	110.7	-3.89999	13.6
									CHANNELS 3  Xrotation Yrotation Zrotation
									JOINT right_hand
									{
										OFFSET	110.7	-3.89999	13.6
										CHANNELS 3  Xrotation Yrotation Zrotation
										JOINT right_ee
										{
											OFFSET	80.8	-5.10001	12.1
											CHANNELS 3  Xrotation Yrotation Zrotation
											End Site
											{
												OFFSET	1	0	0
											}
										}
									}
								}
							}
						}
					}
				}
			}
		}
	}
	JOINT left_hip
	{
		OFFSET	-82.8	-127.5	0.300001
		CHANNELS 3  Xrotation Yrotation Zrotation
		JOINT left_knee
		{
			OFFSET	-28.2	-396.7	2.2
			CHANNELS 3  Xrotation Yrotation Zrotation
			JOINT left_ankle
			{
				OFFSET	-11.7	-411.3	35.4
				CHANNELS 3  Xrotation Yrotation Zrotation
				JOINT left_toes
				{
					OFFSET	0	-60	-88.6
					CHANNELS 3  Xrotation Yrotation Zrotation
					JOINT left_foot_ee
					{
						OFFSET	-22.5	-16.5	-42.2
						CHANNELS 3  Xrotation Yrotation Zrotation
						End Site
						{
							OFFSET	1	0	0
						}
					}
				}
			}
		}
	}
	JOINT right_hip
	{
		OFFSET	82.8	-127.5	0.300001
		CHANNELS 3  Xrotation Yrotation Zrotation
		JOINT right_knee
		{
			OFFSET	28.2	-396.7	2.2
			CHANNELS 3  Xrotation Yrotation Zrotation
			JOINT right_ankle
			{
				OFFSET	11.7	-411.3	35.4
				CHANNELS 3  Xrotation Yrotation Zrotation
				JOINT right_toes
				{
					OFFSET	0	-60	-88.6
					CHANNELS 3  Xrotation Yrotation Zrotation
					JOINT right_foot_ee
					{
						OFFSET	22.5	-16.5	-42.2
						CHANNELS 3  Xrotation Yrotation Zrotation
						End Site
						{
							OFFSET	1	0	0
						}
					}
				}
			}
		}
	}
}
MOTION
Frames: 12
Frame Time: 0.02
3381.59 624.992 -475.092 -21.4644 44.4236 6.70201 5.67812 0.392537 3.40888 5.68456 0.174956 3.42692 5.68829 -0.21093 3.42489 5.67208 0.332292 3.41527 -9.12421 5.54344 -2.85023 -9.12907 12.36 -1.49284 -0.0 0.0 -0.0 -8.04648 21.3696 -9.2116 -8.63979 -55.2783 78.3413 0.613825 -16.9131 0.0912618 69.6236 -2.70141 -7.92023 -9.34443 24.6234 -51.0813 -0.0 0.0 -0.0 9.95036 27.9483 -18.5345 -3.58081 45.7242 -70.7051 0.47063 13.1235 -0.0541356 -54.4207 4.59818 -4.8939 -9.57111 -29.0512 46.2095 0.0 0.0 0.0 40.5184 23.671 -2.96844 -63.0566 -2.53893 8.85334 17.4237 27.8392 -2.56853 9.58621 -0.0 -0.0 -0.0 0.0 -0.0 20.0599 10.9392 3.57021 4.91416 0.233329 0.717614 38.2988 17.3271 5.09199 -15.46 0.0 0.0 0.0 0.0 0.0 
3367.93 634.989 -486.566 -20.5961 44.654 6.67373 5.71144 0.498892 3.44169 5.71798 0.279012 3.46642 5.72791 -0.109376 3.47589 5.71132 0.440617 3.44962 -10.3596 5.5137 -4.25487 -10.3637 13.2399 -2.73263 -0.0 0.0 -0.0 -8.19043 19.8377 -9.97306 -6.95551 -58.2835 81.7228 0.5773 -15.9595 0.0809268 69.6457 -2.70369 -7.92191 -9.77573 26.9076 -51.6658 -0.0 0.0 -0.0 9.9664 27.9197 -18.5736 -1.94351 45.9138 -70.1511 0.452185 12.626 -0.0500257 -53.7843 4.52143 -4.86604 -9.36157 -29.0144 44.4749 0.0 0.0 0.0 43.41 18.588 -0.0681084 -61.0349 -2.31276 8.63846 15.4485 28.9284 -2.31063 7.47865 -0.0 -0.0 -0.0 0.0 -0.0 18.7864 9.61161 2.01338 5.95663 0.290707 0.86717 37.1774 18.6516 5.03559 -16.5204 0.0 0.0 0.0 0.0 0.0 
3344.79 637.569 -501.278 -20.534 43.825 7.20896 5.74248 0.56633 3.43225 5.74897 0.346913 3.46129 5.76294 -0.0390708 3.47839 5.74643 0.510435 3.441 -11.0734 5.2786 -5.16937 -11.0683 13.3768 -3.59825 -0.0 0.0 -0.0 -7.9869 18.6311 -10.0721 -5.94071 -60.3508 83.9045 0.559311 -15.4864 0.076052 69.5698 -2.69585 -7.91613 -10.1273 28.8793 -51.7009 -0.0 0.0 -0.0 10.4045 27.3006 -19.6252 -0.703346 45.9133 -69.8535 0.429221 12.0039 -0.0451279 -53.8835 4.53337 -4.87044 -9.47388 -30.0289 43.8847 0.0 0.0 0.0 45.9461 14.0633 0.252111 -58.3036 -2.01962 8.3359 13.9788 27.8071 -2.08605 5.16564 -0.0 -0.0 -0.0 0.0 -0.0 18.0233 7.95413 1.56716 6.48279 0.320701 0.94226 36.4712 18.7319 4.96995 -17.1534 0.0 0.0 0.0 0.0 0.0 
3332.24 629.095 -516.989 -20.7287 43.7767 7.70401 6.08066 0.621467 3.40755 6.08703 0.403508 3.44014 6.10375 0.0402526 3.46346 6.08749 0.586414 3.41375 -9.07488 4.6528 -5.17545 -9.02032 12.2939 -4.00183 -0.0 0.0 -0.0 -7.88239 17.874 -10.1623 -6.65253 -63.5654 84.103 0.546165 -15.1393 0.0725802 69.4062 -2.67898 -7.90362 -10.4665 31.487 -50.1389 -0.0 0.0 -0.0 10.835 26.965 -20.6308 0.601153 45.9607 -69.1347 0.450958 12.5928 -0.0497579 -53.3874 4.47373 -4.84823 -9.84398 -31.0537 45.3549 0.0 0.0 0.0 47.813 10.0456 1.43586 -56.2202 -1.80596 8.09602 11.9963 24.8048 -1.77076 3.45642 -0.0 -0.0 -0.0 0.0 -0.0 16.9344 5.32428 0.306424 4.47505 0.209979 0.654317 37.0536 18.9067 5.03356 -16.0633 0.0 0.0 0.0 0.0 0.0 
3321.01 629.909 -528.619 -20.4902 43.9835 7.78462 6.22948 0.612795 3.39825 6.23581 0.395444 3.4303 6.25176 0.0421814 3.45273 6.2356 0.586627 3.40286 -7.7769 4.25746 -5.0204 -7.70229 11.5005 -4.0836 -0.0 0.0 -0.0 -7.89131 17.1528 -10.4197 -8.5434 -65.8926 82.403 0.535974 -14.8695 0.0699418 69.2261 -2.66046 -7.88981 -10.6512 32.9365 -49.0895 -0.0 0.0 -0.0 10.9714 26.6296 -20.9763 1.29031 45.8083 -68.2831 0.465326 12.9806 -0.0529378 -53.0416 4.43225 -4.83245 -10.0772 -31.6135 46.4069 0.0 0.0 0.0 49.5265 6.54595 1.06263 -53.9614 -1.5844 7.82748 10.5322 22.5905 -1.54503 2.20518 -0.0 -0.0 -0.0 0.0 -0.0 15.7742 3.5598 -0.0605416 2.78051 0.124448 0.408458 37.5709 19.0606 5.08944 -15.2619 0.0 0.0 0.0 0.0 0.0 
3302.04 629.397 -542.377 -21.2496 44.4849 8.92461 6.29884 0.509609 3.41592 6.30529 0.291344 3.44139 6.31487 -0.0588892 3.45318 6.29856 0.486891 3.41923 -7.82555 4.08714 -4.79162 -7.75844 11.0191 -3.88647 -0.0 0.0 -0.0 -7.40604 16.5156 -9.83207 -8.99439 -67.8693 81.4378 0.528832 -14.68 0.0681204 68.9701 -2.63421 -7.87007 -10.4719 32.3193 -48.6281 -0.0 0.0 -0.0 11.0879 26.3955 -21.2658 1.79371 45.7258 -67.6804 0.516325 14.3473 -0.0649862 -52.8078 4.40428 -4.82164 -10.1889 -31.5491 47.4895 0.0 0.0 0.0 52.1675 3.61488 -0.870438 -50.5301 -1.26865 7.4036 9.50172 20.5818 -1.38657 1.32561 -0.0 -0.0 -0.0 0.0 -0.0 14.971 2.33263 -0.275213 1.59067 0.0687633 0.234395 37.9343 19.1651 5.12821 -14.834 0.0 0.0 0.0 0.0 0.0 
3298.72 629.937 -553.477 -21.7844 45.1524 10.2302 6.06243 0.501273 3.52639 6.0693 0.276009 3.5511 6.07843 -0.100016 3.56039 6.06104 0.46318 3.53159 -7.88914 4.21459 -4.73049 -7.82497 11.2109 -3.79132 -0.0 0.0 -0.0 -7.42993 16.9785 -9.7229 -14.4018 -69.6095 76.1261 0.512793 -14.2531 0.0641137 68.4491 -2.58105 -7.82954 -10.2277 31.2982 -48.2788 -0.0 0.0 -0.0 11.1505 26.1622 -21.4332 1.87292 45.6195 -66.9126 0.552359 15.303 -0.0742066 -52.8859 4.41362 -4.82526 -10.2943 -31.3816 48.7335 0.0 0.0 0.0 53.6716 1.21115 -1.49615 -48.1262 -1.06292 7.09592 8.91945 18.5283 -1.29443 0.798869 -0.0 -0.0 -0.0 0.0 -0.0 14.8737 1.47577 -0.962358 2.64474 0.11791 0.388653 38.013 19.2141 5.13764 -14.5743 0.0 0.0 0.0 0.0 0.0 
3284.3 622.935 -555.918 -22.8987 45.9569 11.5123 5.89484 0.426081 3.13482 5.90028 0.225842 3.15555 5.90667 -0.117716 3.16143 5.89293 0.382799 3.1404 -7.91807 4.59405 -4.99283 -7.84722 12.1026 -3.96774 -0.0 0.0 -0.0 -6.20852 17.4438 -7.6131 -17.8412 -71.1879 71.4148 0.49328 -13.7317 0.0593954 67.9456 -2.53003 -7.78992 -10.3071 31.4939 -48.6467 -0.0 0.0 -0.0 11.21 26.228 -21.5605 0.124115 46.2229 -62.7073 0.628564 17.2952 -0.0955967 -53.0721 4.43591 -4.83385 -10.4146 -31.3211 49.9614 0.0 0.0 0.0 54.9271 -0.192173 -1.27953 -43.3272 -0.691895 6.45766 7.17485 16.353 -1.04026 -0.0117027 0.0 0.0 -0.0 0.0 -0.0 15.3513 1.76508 -0.77487 -0.415855 -0.0169001 -0.0615795 39.0122 18.687 5.20966 -12.3901 0.0 0.0 0.0 0.0 0.0 
3264.88 621.758 -561.055 -22.8255 45.9921 12.1809 5.81238 0.477297 2.82727 5.81678 0.296498 2.85188 5.82671 -0.0184317 2.86718 5.81551 0.434433 2.83417 -7.93921 4.89883 -5.24951 -7.86134 12.8513 -4.15532 -0.0 0.0 -0.0 -5.50836 19.7213 -5.89209 -21.6576 -73.0074 66.6894 0.500756 -13.9318 0.0611828 67.1498 -2.45011 -7.72639 -10.3664 31.4376 -49.2934 -0.0 0.0 -0.0 11.5272 25.1747 -22.3943 -1.35484 46.218 -59.4301 0.717354 19.563 -0.123671 -53.2976 4.46294 -4.84416 -10.53 -31.3036 51.1026 0.0 0.0 0.0 56.0681 -1.59663 0.336042 -39.146 -0.413331 5.87837 5.96125 14.563 -0.863916 -0.579054 0.0 0.0 -0.0 0.0 -0.0 15.5566 1.99374 -0.54413 -4.47361 -0.158168 -0.668172 38.6227 18.1768 5.15385 -10.7075 0.0 0.0 0.0 0.0 0.0 
3249.83 622.719 -564.015 -23.0654 46.1497 12.9577 5.85918 0.461614 2.50838 5.86263 0.301116 2.53265 5.8721 0.0232494 2.55037 5.86328 0.425612 2.51474 -7.17845 5.10532 -4.60994 -7.10504 12.8028 -3.56411 -0.0 0.0 -0.0 -5.45886 22.5336 -5.05597 -28.0249 -74.0203 60.8066 0.501518 -13.9521 0.0613665 65.7401 -2.31073 -7.61116 -10.2339 30.5353 -49.7081 -0.0 0.0 -0.0 11.3725 22.285 -22.3202 -2.57153 46.116 -56.8278 0.825859 22.2496 -0.162401 -54.3556 4.59031 -4.89109 -10.8655 -31.8648 53.3362 0.0 0.0 0.0 54.9265 -5.99208 0.89194 -30.262 0.0339417 4.59038 1.5022 13.8826 -0.220049 -2.57913 0.0 0.0 -0.0 0.0 -0.0 15.9383 2.18005 -0.125359 -8.9227 -0.263265 -1.34267 38.4125 16.4177 5.07018 -9.42212 0.0 0.0 0.0 0.0 0.0 
3238.28 624.653 -571.583 -24.3093 45.9944 13.9516 5.86169 0.455085 2.28673 5.86454 0.308693 2.31103 5.8738 0.0550178 2.3309 5.86647 0.422351 2.29299 -6.4455 5.35701 -3.31283 -6.39268 12.3394 -2.29386 -0.0 0.0 -0.0 -4.13945 22.682 -3.14889 -30.5184 -74.2867 58.5652 0.505065 -14.0469 0.0622245 65.2603 -2.26395 -7.57117 -10.1862 29.9921 -50.2419 -0.0 0.0 -0.0 11.4426 20.3784 -22.6324 -3.4653 45.7686 -54.8928 0.904225 24.1286 -0.193264 -54.9781 4.66565 -4.9176 -11.0142 -32.1262 54.3358 0.0 0.0 0.0 53.3998 -8.95325 1.5167 -20.1717 0.293559 3.06562 -1.46187 13.1659 0.215376 -3.9908 0.0 0.0 -0.0 0.0 -0.0 16.0421 2.27146 -0.297089 -10.1612 -0.283171 -1.53168 38.2799 14.4073 4.99226 -8.99481 0.0 0.0 0.0 0.0 0.0 
3223.17 626.645 -588.817 -24.5518 46.4424 14.9075 5.83143 0.436038 2.13013 5.8339 0.299641 2.15355 5.84242 0.0619847 2.1734 5.83605 0.404376 2.13637 -6.42844 5.64516 -2.00118 -6.40072 11.917 -0.917393 -0.0 0.0 -0.0 -1.61107 21.2614 0.165032 -32.7544 -73.9579 53.8676 0.409922 -11.4788 0.0412005 64.8705 -2.2262 -7.5384 -10.1885 30.0638 -50.1336 -0.0 0.0 -0.0 11.6702 18.5068 -23.2771 -3.89083 45.2815 -53.8266 0.983287 25.9698 -0.226742 -55.3539 4.71125 -4.93321 -11.0884 -32.1555 55.0755 0.0 0.0 0.0 50.9032 -11.8848 0.794069 -11.1432 0.296046 1.68179 -3.4527 13.0495 0.510702 -4.97876 0.0 0.0 -0.0 0.0 -0.0 16.4804 1.71937 -0.647395 -11.0254 -0.294639 -1.66378 38.3246 11.6898 4.91961 -8.97917 0.0 0.0 0.0 0.0 0.0 
